<svg width="64" height="64" viewBox="0 0 64 64" fill="none" xmlns="http://www.w3.org/2000/svg">
<g id="play button">
<circle id="Ellipse 44" cx="32" cy="32" r="32" fill="white"/>
<g id="&#240;&#159;&#166;&#134; icon &#34;play&#34;">
<path id="Vector" d="M40 32.4553C40.0009 32.7048 39.9373 32.9502 39.8153 33.1678C39.6934 33.3854 39.5171 33.5677 39.3038 33.697L26.2135 41.697C25.993 41.8318 25.7405 41.9055 25.4821 41.9104C25.2237 41.9153 24.9687 41.8512 24.7432 41.7248C24.5178 41.5985 24.3301 41.4143 24.1995 41.1913C24.0689 40.9683 24 40.7145 24 40.456V24.4546C24 24.1962 24.0689 23.9424 24.1995 23.7194C24.3301 23.4964 24.5178 23.3122 24.7432 23.1858C24.9687 23.0594 25.2237 22.9954 25.4821 23.0003C25.7405 23.0052 25.993 23.0788 26.2135 23.2136L39.3038 31.2136C39.5171 31.343 39.6934 31.5253 39.8153 31.7429C39.9373 31.9604 40.0009 32.2059 40 32.4553Z" fill="black"/>
</g>
</g>
</svg>
